<?xml version="1.0" encoding="utf-8"?>
<!-- Generator: Adobe Illustrator 28.4.1, SVG Export Plug-In . SVG Version: 6.00 Build 0)  -->
<svg version="1.1" xmlns="http://www.w3.org/2000/svg" xmlns:xlink="http://www.w3.org/1999/xlink" x="0px" y="0px" width="24px"
	 height="24px" viewBox="0 0 24 24" enable-background="new 0 0 24 24" xml:space="preserve">
<g id="Cutout">
</g>
<g id="Cloud">
	<g>
		<g>
			<path d="M14.516,14.527C14.005,11.946,11.731,10,9,10c-2.178,0-4.063,1.24-4.997,3.05C1.755,13.301,0,15.185,0,17.5
				C0,19.985,2.015,22,4.5,22H9h5.25c2.071,0,3.75-1.679,3.75-3.75C18,16.27,16.461,14.666,14.516,14.527z M14.25,20H9H4.5
				C3.119,20,2,18.881,2,17.5C2,16.119,3.119,15,4.5,15h0.938C5.735,13.297,7.212,12,9,12c2.002,0,3.625,1.623,3.625,3.625
				c0,0.303-0.048,0.593-0.119,0.875h1.744c0.966,0,1.75,0.784,1.75,1.75S15.216,20,14.25,20z"/>
		</g>
	</g>
</g>
<g id="Sun">
</g>
</svg>
