<?xml version="1.0" encoding="utf-8"?>
<!-- Generator: Adobe Illustrator 28.4.1, SVG Export Plug-In . SVG Version: 6.00 Build 0)  -->
<svg version="1.1" xmlns="http://www.w3.org/2000/svg" xmlns:xlink="http://www.w3.org/1999/xlink" x="0px" y="0px" width="24px"
	 height="24px" viewBox="0 0 24 24" enable-background="new 0 0 24 24" xml:space="preserve">
<g id="Cutout">
</g>
<g id="Cloud">
</g>
<g id="Sun">
	<g>
		<g>
			<rect x="12" y="21" width="2" height="3"/>
			<rect x="21" y="12" width="3" height="2"/>
			<rect x="12" y="2" width="2" height="3"/>
			<rect x="2" y="12" width="3" height="2"/>
			<rect x="5.282" y="18.218" transform="matrix(0.7071 0.7071 -0.7071 0.7071 15.7825 1.3327)" width="2" height="3"/>
			<rect x="18.218" y="18.718" transform="matrix(0.7071 0.7071 -0.7071 0.7071 19.7175 -8.1673)" width="3" height="2"/>
			<rect x="18.718" y="4.782" transform="matrix(0.7071 0.7071 -0.7071 0.7071 10.2175 -12.1023)" width="2" height="3"/>
			<rect x="4.782" y="5.282" transform="matrix(0.7071 0.7071 -0.7071 0.7071 6.2825 -2.6023)" width="3" height="2"/>
		</g>
		<g>
			<g>
				<path d="M13,7c-3.314,0-6,2.686-6,6s2.686,6,6,6s6-2.686,6-6S16.314,7,13,7z M13,17c-2.209,0-4-1.791-4-4c0-2.209,1.791-4,4-4
					s4,1.791,4,4C17,15.209,15.209,17,13,17z"/>
			</g>
		</g>
	</g>
</g>
</svg>
